<?xml version="1.0" encoding="UTF-8" standalone="no"?>
<!DOCTYPE svg PUBLIC "-//W3C//DTD SVG 1.1//EN" "http://www.w3.org/Graphics/SVG/1.1/DTD/svg11.dtd">
<svg width="100%" height="100%" viewBox="0 0 1280 297" version="1.1" xmlns="http://www.w3.org/2000/svg" xmlns:xlink="http://www.w3.org/1999/xlink" xml:space="preserve" xmlns:serif="http://www.serif.com/" style="fill-rule:evenodd;clip-rule:evenodd;stroke-linejoin:round;stroke-miterlimit:1.41421;">
    <g transform="matrix(1,0,0,1,-4350,-1995)">
        <g id="horizontal-inside-yellow-icon-white-text" transform="matrix(1,0,0,0.232031,4350,1654.14)">
            <rect x="0" y="1469.02" width="1280" height="1280" style="fill:none;"/>
            <clipPath id="_clip1">
                <rect x="0" y="1469.02" width="1280" height="1280"/>
            </clipPath>
            <g clip-path="url(#_clip1)">
                <g transform="matrix(3.2737,0,0,14.1089,-2471.74,-11928.5)">
                    <circle cx="800.33" cy="994.884" r="45.302" style="fill:rgb(255,195,43);"/>
                </g>
                <g transform="matrix(9.52204e-17,-6.70197,1.10887,2.92628e-16,-658.224,5923.13)">
                    <path d="M610.662,722.779C610.616,723.333 610.613,723.474 610.533,724.02C609.392,731.813 601.005,735.674 596.977,728.548C596.885,728.384 596.799,728.213 596.71,728.045L569.226,673.132L541.743,728.045C541.743,728.045 537.446,734.144 533.024,732.082C528.809,730.116 526.505,722.385 528.688,716.724C528.877,716.233 528.939,716.123 529.158,715.658L562.934,648.171C563.919,646.32 564.359,645.906 565.195,645.185C568.225,642.567 572.559,643.405 574.964,647.189C575.229,647.605 575.282,647.725 575.519,648.171L609.295,715.658C610.04,717.241 610.542,719.031 610.66,720.9C610.737,722.108 610.678,722.393 610.662,722.779Z" style="fill:white;fill-rule:nonzero;"/>
                </g>
                <g transform="matrix(9.52204e-17,-6.70197,1.55507,4.10377e-16,-933.948,5923.13)">
                    <path d="M610.677,722.301C610.468,724.688 609.135,726.87 607.794,728.934C598.086,743.876 577.657,750.077 560.305,747.035C547.495,744.79 535.277,737.569 528.857,725.822C526.224,721.004 529.778,713.981 535.693,714.167C538.681,714.262 541.125,716.373 542.704,719.073C548.811,729.389 562.529,733.471 573.776,732.237C582.844,731.242 591.831,726.96 596.133,718.399C596.133,718.399 598.173,714.896 601.67,714.28C605.753,713.561 610.145,716.729 610.639,720.961C610.739,721.82 610.685,722.025 610.677,722.301Z" style="fill:white;fill-rule:nonzero;"/>
                </g>
                <g transform="matrix(17.6968,0,0,76.269,-9691.65,-35567.8)">
                    <path d="M571.512,491.185C569.688,491.185 568.488,492.487 568.488,494.209C568.488,495.931 569.688,497.233 571.512,497.233C572.376,497.233 573.132,496.921 573.66,496.315L572.886,495.451C572.52,495.793 572.028,496.051 571.476,496.051C570.51,496.051 569.778,495.295 569.778,494.209C569.778,493.123 570.51,492.367 571.476,492.367C572.028,492.367 572.448,492.577 572.856,492.961L573.66,492.103C573.15,491.497 572.376,491.185 571.512,491.185Z" style="fill:white;fill-rule:nonzero;"/>
                </g>
                <g transform="matrix(17.6968,0,0,76.269,-9691.65,-35567.8)">
                    <path d="M576.324,492.019L576.324,488.443L575.064,488.443L575.064,497.083L576.324,497.083L576.324,493.897C576.324,492.913 577.002,492.379 577.812,492.379C578.658,492.379 579.15,492.919 579.15,493.885L579.15,497.083L580.41,497.083L580.41,493.471C580.41,492.127 579.444,491.185 578.076,491.185C577.494,491.185 576.786,491.365 576.324,492.019Z" style="fill:white;fill-rule:nonzero;"/>
                </g>
                <g transform="matrix(17.6968,0,0,76.269,-9691.65,-35567.8)">
                    <path d="M583.578,497.083L583.578,491.335L582.318,491.335L582.318,497.083L583.578,497.083ZM582.942,488.461C582.438,488.461 582.066,488.851 582.066,489.349C582.066,489.853 582.438,490.225 582.942,490.225C583.44,490.225 583.83,489.853 583.83,489.349C583.83,488.851 583.44,488.461 582.942,488.461Z" style="fill:white;fill-rule:nonzero;"/>
                </g>
                <g transform="matrix(17.6968,0,0,76.269,-9691.65,-35567.8)">
                    <path d="M590.058,492.247L590.058,491.335L585.348,491.335L585.348,492.475L588.444,492.475L585.252,496.171L585.252,497.083L590.118,497.083L590.118,495.943L586.92,495.943L590.058,492.247Z" style="fill:white;fill-rule:nonzero;"/>
                </g>
                <g transform="matrix(17.6968,0,0,76.269,-9691.65,-35567.8)">
                    <path d="M597.06,494.647L597.06,491.335L595.8,491.335L595.8,494.533C595.8,495.643 595.188,496.051 594.396,496.051C593.604,496.051 592.992,495.643 592.992,494.533L592.992,491.335L591.732,491.335L591.732,494.647C591.732,496.477 593.046,497.233 594.396,497.233C595.74,497.233 597.06,496.477 597.06,494.647Z" style="fill:white;fill-rule:nonzero;"/>
                </g>
                <g transform="matrix(17.6968,0,0,76.269,-9691.65,-35567.8)">
                    <path d="M600.228,493.519L600.228,488.443L598.968,488.443L598.968,497.083L600.228,497.083L600.228,494.659L600.852,494.659L602.766,497.083L604.356,497.083L601.926,494.041L604.332,491.335L602.754,491.335L600.858,493.519L600.228,493.519Z" style="fill:white;fill-rule:nonzero;"/>
                </g>
                <g transform="matrix(17.6968,0,0,76.269,-9691.65,-35567.8)">
                    <path d="M607.686,491.185C605.994,491.185 604.824,492.409 604.824,494.209C604.824,496.033 606.036,497.233 607.764,497.233C608.634,497.233 609.426,497.023 610.128,496.423L609.504,495.529C609.024,495.913 608.418,496.135 607.842,496.135C607.032,496.135 606.294,495.703 606.132,494.671L610.38,494.671C610.398,494.527 610.404,494.365 610.404,494.203C610.404,492.409 609.288,491.185 607.686,491.185ZM607.662,492.301C608.46,492.301 608.982,492.823 609.12,493.717L606.138,493.717C606.264,492.877 606.768,492.301 607.662,492.301Z" style="fill:white;fill-rule:nonzero;"/>
                </g>
                <g transform="matrix(17.6968,0,0,76.269,-9691.65,-35567.8)">
                    <path d="M613.218,493.519L613.218,488.443L611.958,488.443L611.958,497.083L613.218,497.083L613.218,494.659L613.842,494.659L615.756,497.083L617.346,497.083L614.916,494.041L617.322,491.335L615.744,491.335L613.848,493.519L613.218,493.519Z" style="fill:white;fill-rule:nonzero;"/>
                </g>
                <g transform="matrix(17.6968,0,0,76.269,-9691.65,-35567.8)">
                    <path d="M619.728,497.083L619.728,491.335L618.468,491.335L618.468,497.083L619.728,497.083ZM619.092,488.461C618.588,488.461 618.216,488.851 618.216,489.349C618.216,489.853 618.588,490.225 619.092,490.225C619.59,490.225 619.98,489.853 619.98,489.349C619.98,488.851 619.59,488.461 619.092,488.461Z" style="fill:white;fill-rule:nonzero;"/>
                </g>
            </g>
        </g>
    </g>
</svg>
