<?xml version="1.0" encoding="UTF-8" standalone="no"?>
<!DOCTYPE svg PUBLIC "-//W3C//DTD SVG 1.1//EN" "http://www.w3.org/Graphics/SVG/1.1/DTD/svg11.dtd">
<svg width="100%" height="100%" viewBox="0 0 1280 255" version="1.1" xmlns="http://www.w3.org/2000/svg" xmlns:xlink="http://www.w3.org/1999/xlink" xml:space="preserve" xmlns:serif="http://www.serif.com/" style="fill-rule:evenodd;clip-rule:evenodd;stroke-linejoin:round;stroke-miterlimit:1.41421;">
    <g transform="matrix(1,0,0,1,-5800,-3636)">
        <g id="horizontal-outside-yellow-icon-yellow-text" transform="matrix(1,0,0,0.199219,5800,3343.34)">
            <rect x="0" y="1469.02" width="1280" height="1280" style="fill:none;"/>
            <clipPath id="_clip1">
                <rect x="0" y="1469.02" width="1280" height="1280"/>
            </clipPath>
            <g clip-path="url(#_clip1)">
                <g transform="matrix(16.683,0,0,83.742,-9063.11,-39196.8)">
                    <path d="M571.512,491.185C569.688,491.185 568.488,492.487 568.488,494.209C568.488,495.931 569.688,497.233 571.512,497.233C572.376,497.233 573.132,496.921 573.66,496.315L572.886,495.451C572.52,495.793 572.028,496.051 571.476,496.051C570.51,496.051 569.778,495.295 569.778,494.209C569.778,493.123 570.51,492.367 571.476,492.367C572.028,492.367 572.448,492.577 572.856,492.961L573.66,492.103C573.15,491.497 572.376,491.185 571.512,491.185Z" style="fill:rgb(255,195,43);fill-rule:nonzero;"/>
                </g>
                <g transform="matrix(16.683,0,0,83.742,-9063.11,-39196.8)">
                    <path d="M576.324,492.019L576.324,488.443L575.064,488.443L575.064,497.083L576.324,497.083L576.324,493.897C576.324,492.913 577.002,492.379 577.812,492.379C578.658,492.379 579.15,492.919 579.15,493.885L579.15,497.083L580.41,497.083L580.41,493.471C580.41,492.127 579.444,491.185 578.076,491.185C577.494,491.185 576.786,491.365 576.324,492.019Z" style="fill:rgb(255,195,43);fill-rule:nonzero;"/>
                </g>
                <g transform="matrix(16.683,0,0,83.742,-9063.11,-39196.8)">
                    <path d="M583.578,497.083L583.578,491.335L582.318,491.335L582.318,497.083L583.578,497.083ZM582.942,488.461C582.438,488.461 582.066,488.851 582.066,489.349C582.066,489.853 582.438,490.225 582.942,490.225C583.44,490.225 583.83,489.853 583.83,489.349C583.83,488.851 583.44,488.461 582.942,488.461Z" style="fill:rgb(255,195,43);fill-rule:nonzero;"/>
                </g>
                <g transform="matrix(16.683,0,0,83.742,-9063.11,-39196.8)">
                    <path d="M590.058,492.247L590.058,491.335L585.348,491.335L585.348,492.475L588.444,492.475L585.252,496.171L585.252,497.083L590.118,497.083L590.118,495.943L586.92,495.943L590.058,492.247Z" style="fill:rgb(255,195,43);fill-rule:nonzero;"/>
                </g>
                <g transform="matrix(16.683,0,0,83.742,-9063.11,-39196.8)">
                    <path d="M597.06,494.647L597.06,491.335L595.8,491.335L595.8,494.533C595.8,495.643 595.188,496.051 594.396,496.051C593.604,496.051 592.992,495.643 592.992,494.533L592.992,491.335L591.732,491.335L591.732,494.647C591.732,496.477 593.046,497.233 594.396,497.233C595.74,497.233 597.06,496.477 597.06,494.647Z" style="fill:rgb(255,195,43);fill-rule:nonzero;"/>
                </g>
                <g transform="matrix(16.683,0,0,83.742,-9063.11,-39196.8)">
                    <path d="M600.228,493.519L600.228,488.443L598.968,488.443L598.968,497.083L600.228,497.083L600.228,494.659L600.852,494.659L602.766,497.083L604.356,497.083L601.926,494.041L604.332,491.335L602.754,491.335L600.858,493.519L600.228,493.519Z" style="fill:rgb(255,195,43);fill-rule:nonzero;"/>
                </g>
                <g transform="matrix(16.683,0,0,83.742,-9063.11,-39196.8)">
                    <path d="M607.686,491.185C605.994,491.185 604.824,492.409 604.824,494.209C604.824,496.033 606.036,497.233 607.764,497.233C608.634,497.233 609.426,497.023 610.128,496.423L609.504,495.529C609.024,495.913 608.418,496.135 607.842,496.135C607.032,496.135 606.294,495.703 606.132,494.671L610.38,494.671C610.398,494.527 610.404,494.365 610.404,494.203C610.404,492.409 609.288,491.185 607.686,491.185ZM607.662,492.301C608.46,492.301 608.982,492.823 609.12,493.717L606.138,493.717C606.264,492.877 606.768,492.301 607.662,492.301Z" style="fill:rgb(255,195,43);fill-rule:nonzero;"/>
                </g>
                <g transform="matrix(16.683,0,0,83.742,-9063.11,-39196.8)">
                    <path d="M613.218,493.519L613.218,488.443L611.958,488.443L611.958,497.083L613.218,497.083L613.218,494.659L613.842,494.659L615.756,497.083L617.346,497.083L614.916,494.041L617.322,491.335L615.744,491.335L613.848,493.519L613.218,493.519Z" style="fill:rgb(255,195,43);fill-rule:nonzero;"/>
                </g>
                <g transform="matrix(16.683,0,0,83.742,-9063.11,-39196.8)">
                    <path d="M619.728,497.083L619.728,491.335L618.468,491.335L618.468,497.083L619.728,497.083ZM619.092,488.461C618.588,488.461 618.216,488.851 618.216,489.349C618.216,489.853 618.588,490.225 619.092,490.225C619.59,490.225 619.98,489.853 619.98,489.349C619.98,488.851 619.59,488.461 619.092,488.461Z" style="fill:rgb(255,195,43);fill-rule:nonzero;"/>
                </g>
                <g transform="matrix(1.89216e-16,-15.5113,2.20348,6.77268e-16,-1419.09,10938.6)">
                    <path d="M610.496,722.273C610.143,729.374 604.226,734.642 599.508,731.158C598.721,730.577 598.01,729.799 597.416,728.87C597.152,728.457 597.1,728.338 596.864,727.894L569.226,672.673L541.589,727.894L541.323,728.393C541.069,728.817 541.011,728.931 540.73,729.322C537.122,734.337 529.761,732.246 528.237,724.729C527.63,721.738 528.077,718.439 529.312,715.809L563.088,648.322C563.327,647.874 563.38,647.753 563.647,647.336C566.416,643.012 571.912,642.818 574.806,647.336C575.073,647.753 575.126,647.874 575.365,648.322L609.141,715.809C609.358,716.272 609.421,716.381 609.608,716.87C610.238,718.512 610.511,720.349 610.496,722.273Z" style="fill:rgb(255,195,43);fill-rule:nonzero;"/>
                </g>
                <g transform="matrix(1.89216e-16,-15.5113,3.09013,9.49791e-16,-1966.99,10938.6)">
                    <path d="M610.493,722.231C610.36,723.878 610.23,724.029 609.892,724.816C602.677,741.586 579.157,750.358 559.786,746.75C547.224,744.411 535.271,737.236 528.927,725.556C528.927,725.556 527.784,723.129 527.988,721.1C528.402,716.992 532.721,713.692 536.862,714.486C540.574,715.197 542.277,719.308 544.667,722.194C545.148,722.775 545.658,723.333 546.191,723.866C554.941,732.606 568.965,734.562 580.378,731.084C586.97,729.076 593.066,724.924 596.301,718.485L596.512,718.094C596.72,717.758 596.765,717.669 597.002,717.352C599.808,713.61 606.372,713.507 609.187,717.608C610.105,718.947 610.528,720.548 610.493,722.231Z" style="fill:rgb(255,195,43);fill-rule:nonzero;"/>
                </g>
            </g>
        </g>
    </g>
</svg>
