<?xml version="1.0" encoding="UTF-8" standalone="no"?>
<!DOCTYPE svg PUBLIC "-//W3C//DTD SVG 1.1//EN" "http://www.w3.org/Graphics/SVG/1.1/DTD/svg11.dtd">
<svg width="100%" height="100%" viewBox="0 0 1280 1280" version="1.1" xmlns="http://www.w3.org/2000/svg" xmlns:xlink="http://www.w3.org/1999/xlink" xml:space="preserve" xmlns:serif="http://www.serif.com/" style="fill-rule:evenodd;clip-rule:evenodd;stroke-linejoin:round;stroke-miterlimit:1.41421;">
    <g transform="matrix(1,0,0,1,0,-1450)">
        <g id="icon-inside-transparent-yellow" transform="matrix(1,0,0,1,0,-19.0244)">
            <rect x="0" y="1469.02" width="1280" height="1280" style="fill:none;"/>
            <clipPath id="_clip1">
                <rect x="0" y="1469.02" width="1280" height="1280"/>
            </clipPath>
            <g clip-path="url(#_clip1)">
                <g transform="matrix(14.1274,0,0,14.1274,-10666.6,-11946.1)">
                    <circle cx="800.33" cy="994.884" r="45.302" style="fill:rgb(255,195,43);"/>
                </g>
                <g transform="matrix(4.10915e-16,-6.71076,4.78524,2.93012e-16,-2840.51,5928.96)">
                    <path d="M610.662,722.779C610.616,723.333 610.613,723.474 610.533,724.02C609.392,731.813 601.005,735.674 596.977,728.548C596.885,728.384 596.799,728.213 596.71,728.045L569.226,673.132L541.743,728.045C541.743,728.045 537.446,734.144 533.024,732.082C528.809,730.116 526.505,722.385 528.688,716.724C528.877,716.233 528.939,716.123 529.158,715.658L562.934,648.171C563.919,646.32 564.359,645.906 565.195,645.185C568.225,642.567 572.559,643.405 574.964,647.189C575.229,647.605 575.282,647.725 575.519,648.171L609.295,715.658C610.04,717.241 610.542,719.031 610.66,720.9C610.737,722.108 610.678,722.393 610.662,722.779Z" style="fill:white;fill-rule:nonzero;"/>
                </g>
                <g transform="matrix(4.10915e-16,-6.71076,6.71076,4.10915e-16,-4030.37,5928.96)">
                    <path d="M610.677,722.301C610.468,724.688 609.135,726.87 607.794,728.934C598.086,743.876 577.657,750.077 560.305,747.035C547.495,744.79 535.277,737.569 528.857,725.822C526.224,721.004 529.778,713.981 535.693,714.167C538.681,714.262 541.125,716.373 542.704,719.073C548.811,729.389 562.529,733.471 573.776,732.237C582.844,731.242 591.831,726.96 596.133,718.399C596.133,718.399 598.173,714.896 601.67,714.28C605.753,713.561 610.145,716.729 610.639,720.961C610.739,721.82 610.685,722.025 610.677,722.301Z" style="fill:white;fill-rule:nonzero;"/>
                </g>
            </g>
        </g>
    </g>
</svg>
