<?xml version="1.0" encoding="UTF-8" standalone="no"?>
<!DOCTYPE svg PUBLIC "-//W3C//DTD SVG 1.1//EN" "http://www.w3.org/Graphics/SVG/1.1/DTD/svg11.dtd">
<svg width="100%" height="100%" viewBox="0 0 1280 1280" version="1.1" xmlns="http://www.w3.org/2000/svg" xmlns:xlink="http://www.w3.org/1999/xlink" xml:space="preserve" xmlns:serif="http://www.serif.com/" style="fill-rule:evenodd;clip-rule:evenodd;stroke-linejoin:round;stroke-miterlimit:1.41421;">
    <g transform="matrix(1,0,0,1,-1450,-1450)">
        <g id="icon-outside-tansparent-yellow" transform="matrix(1,0,0,1,1450,-19.0244)">
            <rect x="0" y="1469.02" width="1280" height="1280" style="fill:none;"/>
            <clipPath id="_clip1">
                <rect x="0" y="1469.02" width="1280" height="1280"/>
            </clipPath>
            <g clip-path="url(#_clip1)">
                <g transform="matrix(7.06012e-16,-11.53,8.22174,5.03436e-16,-5294.96,8672.28)">
                    <path d="M610.496,722.273C610.143,729.374 604.226,734.642 599.508,731.158C598.721,730.577 598.01,729.799 597.416,728.87C597.152,728.457 597.1,728.338 596.864,727.894L569.226,672.673L541.589,727.894L541.323,728.393C541.069,728.817 541.011,728.931 540.73,729.322C537.122,734.337 529.761,732.246 528.237,724.729C527.63,721.738 528.077,718.439 529.312,715.809L563.088,648.322C563.327,647.874 563.38,647.753 563.647,647.336C566.416,643.012 571.912,642.818 574.806,647.336C575.073,647.753 575.126,647.874 575.365,648.322L609.141,715.809C609.358,716.272 609.421,716.381 609.608,716.87C610.238,718.512 610.511,720.349 610.496,722.273Z" style="fill:rgb(255,195,43);fill-rule:nonzero;"/>
                </g>
                <g transform="matrix(7.06012e-16,-11.53,11.53,7.06012e-16,-7339.32,8672.28)">
                    <path d="M610.493,722.231C610.36,723.878 610.23,724.029 609.892,724.816C602.677,741.586 579.157,750.358 559.786,746.75C547.224,744.411 535.271,737.236 528.927,725.556C528.927,725.556 527.784,723.129 527.988,721.1C528.402,716.992 532.721,713.692 536.862,714.486C540.574,715.197 542.277,719.308 544.667,722.194C545.148,722.775 545.658,723.333 546.191,723.866C554.941,732.606 568.965,734.562 580.378,731.084C586.97,729.076 593.066,724.924 596.301,718.485L596.512,718.094C596.72,717.758 596.765,717.669 597.002,717.352C599.808,713.61 606.372,713.507 609.187,717.608C610.105,718.947 610.528,720.548 610.493,722.231Z" style="fill:rgb(255,195,43);fill-rule:nonzero;"/>
                </g>
            </g>
        </g>
    </g>
</svg>
